<?xml version="1.0" standalone="no"?>
<svg xmlns:xlink="http://www.w3.org/1999/xlink" id="wave" style="transform:rotate(0deg); transition: 0.3s" viewBox="0 0 1440 220" version="1.1" xmlns="http://www.w3.org/2000/svg"><defs><linearGradient id="sw-gradient-0" x1="0" x2="0" y1="1" y2="0"><stop stop-color="rgba(9.363, 8.139, 11.811, 1)" offset="0%"/><stop stop-color="rgba(78.241, 67.058, 100.605, 1)" offset="100%"/></linearGradient></defs><path style="transform:translate(0, 0px); opacity:1" fill="url(#sw-gradient-0)" d="M0,132L26.7,124.7C53.3,117,107,103,160,110C213.3,117,267,147,320,150.3C373.3,154,427,132,480,102.7C533.3,73,587,37,640,33C693.3,29,747,59,800,84.3C853.3,110,907,132,960,132C1013.3,132,1067,110,1120,106.3C1173.3,103,1227,117,1280,102.7C1333.3,88,1387,44,1440,22C1493.3,0,1547,0,1600,7.3C1653.3,15,1707,29,1760,44C1813.3,59,1867,73,1920,77C1973.3,81,2027,73,2080,91.7C2133.3,110,2187,154,2240,165C2293.3,176,2347,154,2400,154C2453.3,154,2507,176,2560,154C2613.3,132,2667,66,2720,66C2773.3,66,2827,132,2880,161.3C2933.3,191,2987,183,3040,165C3093.3,147,3147,117,3200,99C3253.3,81,3307,73,3360,91.7C3413.3,110,3467,154,3520,146.7C3573.3,139,3627,81,3680,62.3C3733.3,44,3787,66,3813,77L3840,88L3840,220L3813.3,220C3786.7,220,3733,220,3680,220C3626.7,220,3573,220,3520,220C3466.7,220,3413,220,3360,220C3306.7,220,3253,220,3200,220C3146.7,220,3093,220,3040,220C2986.7,220,2933,220,2880,220C2826.7,220,2773,220,2720,220C2666.7,220,2613,220,2560,220C2506.7,220,2453,220,2400,220C2346.7,220,2293,220,2240,220C2186.7,220,2133,220,2080,220C2026.7,220,1973,220,1920,220C1866.7,220,1813,220,1760,220C1706.7,220,1653,220,1600,220C1546.7,220,1493,220,1440,220C1386.7,220,1333,220,1280,220C1226.7,220,1173,220,1120,220C1066.7,220,1013,220,960,220C906.7,220,853,220,800,220C746.7,220,693,220,640,220C586.7,220,533,220,480,220C426.7,220,373,220,320,220C266.7,220,213,220,160,220C106.7,220,53,220,27,220L0,220Z"/></svg>